<svg width="192" height="204" viewBox="0 0 192 204" fill="none" xmlns="http://www.w3.org/2000/svg">
<g opacity="0.3">
<mask id="mask0_74_207" style="mask-type:luminance" maskUnits="userSpaceOnUse" x="0" y="0" width="192" height="204">
<path d="M191.711 203.597V0L0 0V203.597H191.711Z" fill="white"/>
</mask>
<g mask="url(#mask0_74_207)">
<mask id="mask1_74_207" style="mask-type:luminance" maskUnits="userSpaceOnUse" x="-1" y="0" width="193" height="193">
<path d="M191.758 0.300293V192.094H-0.0355682L191.758 0.300293Z" fill="white"/>
</mask>
<g mask="url(#mask1_74_207)">
<path fill-rule="evenodd" clip-rule="evenodd" d="M0.242386 192.372L0.917435 191.697L191.361 1.25344L192.036 0.578391L191.758 0.300423H192.156V-0.652588L191.48 0.0224562L-0.313538 191.816L-0.988602 192.492H-0.0355682V192.094L0.242386 192.372ZM191.361 191.697H191.758V192.094H191.361V191.697ZM192.156 192.094H191.758V192.492H192.156V192.094Z" fill="black"/>
</g>
</g>
</g>
<g opacity="0.3">
<mask id="mask2_74_207" style="mask-type:luminance" maskUnits="userSpaceOnUse" x="85" y="73" width="48" height="49">
<path d="M85.0784 73.6929H132.603V121.218L85.0784 73.6929Z" fill="white"/>
</mask>
<g mask="url(#mask2_74_207)">
<path d="M132.884 120.937L85.3591 73.4123L84.7976 73.9738L132.322 121.499L132.884 120.937ZM132.202 73.693V121.218H133.004V73.693H132.202ZM85.0784 74.0941H132.603V73.292H85.0784V74.0941ZM132.603 121.218L132.322 121.499L133.004 122.18V121.218H132.603ZM132.603 73.693H133.004V73.292H132.603V73.693ZM85.0784 73.693V73.292H84.1158L84.7976 73.9738L85.0784 73.693Z" fill="black"/>
</g>
</g>
<g opacity="0.3">
<mask id="mask3_74_207" style="mask-type:luminance" maskUnits="userSpaceOnUse" x="68" y="73" width="18" height="18">
<path d="M85.0784 73.6929V90.3366H68.4347L85.0784 73.6929Z" fill="white"/>
</mask>
<g mask="url(#mask3_74_207)">
<path d="M68.7154 90.6172L85.3591 73.9735L84.7976 73.412L68.1539 90.0557L68.7154 90.6172ZM85.0783 89.9354H68.4346V90.7375H85.0783V89.9354ZM84.6773 73.6927V90.3364H85.4794V73.6927H84.6773ZM68.4346 90.3364L68.1539 90.0557L67.4721 90.7375H68.4346V90.3364ZM85.0783 90.3364V90.7375H85.4794V90.3364H85.0783ZM85.0783 73.6927H85.4794V72.7302L84.7976 73.412L85.0783 73.6927Z" fill="black"/>
</g>
</g>
</svg>
