<svg width="394" height="394" viewBox="0 0 394 394" fill="none" xmlns="http://www.w3.org/2000/svg">
<path d="M306 196.9V85.9996H291.5L324.7 36.0996L357.9 85.9996H343.4V196.9H305.9H306Z" stroke="#1B325F" stroke-width="8" stroke-linecap="round" stroke-linejoin="round"/>
<path d="M211.6 197V108.7H197.1L230.3 58.7998L263.5 108.7H249V197H211.5H211.6Z" stroke="#1B325F" stroke-width="8" stroke-linecap="round" stroke-linejoin="round"/>
<path d="M117.1 182.4V147.7H102.6L135.8 97.7998L169 147.7H154.5V197.1H138.5" stroke="#1B325F" stroke-width="8" stroke-linecap="round" stroke-linejoin="round"/>
<path d="M71.4004 97.7998V191.2" stroke="#1B325F" stroke-width="8" stroke-linecap="round" stroke-linejoin="round"/>
<path d="M144.2 242.3H389.2V4.7998H71.4004V105.4" stroke="#1B325F" stroke-width="8" stroke-linecap="round" stroke-linejoin="round"/>
<path d="M142.1 291.9V336.2L100.9 296.6L59.7002 336.2V291.9" stroke="#1B325F" stroke-width="8" stroke-linecap="round" stroke-linejoin="round"/>
<path d="M100.9 296.5V338.5" stroke="#1B325F" stroke-width="8" stroke-linecap="round" stroke-linejoin="round"/>
<path d="M100.9 179.2C77.5001 179.2 58.6001 198.1 58.6001 221.5V231.7H79.3001C93.0001 231.7 106.1 225.6 114.9 215.1L143.2 231.7V221.5C143.2 198.1 124.3 179.2 100.9 179.2Z" stroke="#1B325F" stroke-width="8" stroke-linecap="round" stroke-linejoin="round"/>
<path d="M143.2 223.4V249.7C143.2 273.1 124.3 292 100.9 292C77.5001 292 58.6001 273.1 58.6001 249.7V223.4" stroke="#1B325F" stroke-width="8" stroke-linecap="round" stroke-linejoin="round"/>
<path d="M162.8 291.9H38.9002C20.0002 291.9 4.7002 307.2 4.7002 326.1V389.2H196.9V326.1C196.9 307.2 181.6 291.9 162.7 291.9H162.8Z" stroke="#1B325F" stroke-width="8" stroke-linecap="round" stroke-linejoin="round"/>
</svg>
