<svg width="42" height="42" viewBox="0 0 42 42" fill="none" xmlns="http://www.w3.org/2000/svg">
<path d="M41 41H1V1H41V41Z" stroke="#1B325F" stroke-width="0.849708" stroke-miterlimit="10"/>
<path d="M4.73877 5.98145H7.22417" stroke="#1B325F" stroke-width="0.849708" stroke-miterlimit="10"/>
<path d="M9.72009 5.98145H12.2055" stroke="#1B325F" stroke-width="0.849708" stroke-miterlimit="10"/>
<path d="M1 10.9628H41" stroke="#1B325F" stroke-width="0.849708" stroke-miterlimit="10"/>
<path d="M14.6909 5.98145H17.1763" stroke="#1B325F" stroke-width="0.849708" stroke-miterlimit="10"/>
<path d="M4.73877 36.0186H37.2613" stroke="#1B325F" stroke-width="0.849708" stroke-miterlimit="10"/>
<path d="M18.5145 36.0186V25.8964C18.5145 24.5263 19.6298 23.411 20.9999 23.411C22.3701 23.411 23.4853 24.5263 23.4853 25.8964V36.0186" stroke="#1B325F" stroke-width="0.849708" stroke-miterlimit="10"/>
<path d="M28.4668 36.0186V23.4004C28.4668 22.0303 29.582 20.915 30.9522 20.915C32.3223 20.915 33.4376 22.0303 33.4376 23.4004V36.0186" stroke="#1B325F" stroke-width="0.849708" stroke-miterlimit="10"/>
<path d="M8.55176 36.0186V28.3819C8.55176 27.0117 9.66699 25.8965 11.0371 25.8965C12.4073 25.8965 13.5225 27.0117 13.5225 28.3819V36.0186" stroke="#1B325F" stroke-width="0.849708" stroke-miterlimit="10"/>
<path d="M23.4853 20.915C23.4853 22.2851 22.3701 23.4004 20.9999 23.4004C19.6298 23.4004 18.5145 22.2851 18.5145 20.915C18.5145 19.5448 19.6298 18.4296 20.9999 18.4296C22.3701 18.4296 23.4853 19.5448 23.4853 20.915Z" stroke="#1B325F" stroke-width="0.849708" stroke-miterlimit="10"/>
<path d="M13.5333 23.4111C13.5333 24.7812 12.4181 25.8965 11.0479 25.8965C9.67774 25.8965 8.5625 24.7812 8.5625 23.4111C8.5625 22.0409 9.67774 20.9257 11.0479 20.9257C12.4181 20.9257 13.5333 22.0409 13.5333 23.4111Z" stroke="#1B325F" stroke-width="0.849708" stroke-miterlimit="10"/>
<path d="M33.4482 18.4296C33.4482 19.7998 32.333 20.915 30.9628 20.915C29.5927 20.915 28.4774 19.7998 28.4774 18.4296C28.4774 17.0595 29.5927 15.9442 30.9628 15.9442C32.333 15.9442 33.4482 17.0595 33.4482 18.4296Z" stroke="#1B325F" stroke-width="0.849708" stroke-miterlimit="10"/>
</svg>
