<svg width="24" height="24" viewBox="0 0 24 24" fill="none" xmlns="http://www.w3.org/2000/svg">
<path d="M20.3354 20.3361H16.8273V14.8422C16.8273 13.5321 16.8039 11.8462 15.0026 11.8462C13.1756 11.8462 12.8956 13.2731 12.8956 14.7477V20.3361H9.3886V9.03808H12.7568V10.5816H12.8034C13.4906 9.40791 14.7669 8.70675 16.1261 8.75691C19.6821 8.75691 20.3366 11.0961 20.3366 14.1376L20.3354 20.3361ZM5.4301 7.49341C4.30543 7.49341 3.39426 6.58225 3.39426 5.45758C3.39426 4.33291 4.30543 3.42174 5.4301 3.42174C6.55476 3.42174 7.46593 4.33291 7.46593 5.45758C7.46593 6.58225 6.55476 7.49341 5.4301 7.49341ZM7.1836 20.3361H3.67193V9.03808H7.1836V20.3361ZM22.0843 0.164412H1.9091C0.955931 0.153912 0.174264 0.918079 0.162598 1.87125V22.1292C0.174264 23.0836 0.955931 23.8477 1.9091 23.8372H22.0843C23.0398 23.8489 23.8249 23.0847 23.8378 22.1292V1.87008C23.8238 0.914578 23.0386 0.150412 22.0843 0.163245" fill="white"/>
</svg>
