<svg width="200" height="27" viewBox="0 0 200 27" fill="none" xmlns="http://www.w3.org/2000/svg">
<path fill-rule="evenodd" clip-rule="evenodd" d="M33.3802 18.3116C35.0198 17.6232 36.418 16.4638 37.4054 14.9783C38.3748 13.4312 38.8649 11.6304 38.8144 9.80435C38.8613 7.96015 38.3676 6.14131 37.3946 4.57609C36.4108 3.07609 35.0126 1.89855 33.3693 1.19565C31.6324 0.413039 29.5603 0.0217383 27.1567 0.0217383H15.5387V5.09058H22.3207H26.8216C28.7387 5.09058 30.1694 5.50001 31.1135 6.32247C32.0613 7.13769 32.5333 8.29349 32.5333 9.78624C32.5333 11.279 32.0577 12.4275 31.1135 13.2355C30.1694 14.0725 28.7387 14.4891 26.8324 14.4891H22.3171V14.5036H15.5351V14.6196L21.7441 23.558V19.4638H27.4378L32.5946 26.9855H39.3045L33.3117 18.3333L33.3766 18.3044M6.209 0H0V26.9819H15.5387V27H17.4234L17.4126 26.9819L13.8775 21.8949H6.209V0Z" fill="white"/>
<path d="M54.3026 5.14844H50.4575V21.855H62.6341V18.7028H54.3026V5.14844Z" fill="white"/>
<path d="M66.1943 21.855H79.0592V18.7499H70.0178V14.8839H77.7295V11.8767H70.0178V8.24989H79.0592V5.14844H66.1943V21.855Z" fill="white"/>
<path d="M86.8684 9.43874C87.3837 8.93149 87.9999 8.53656 88.6773 8.28294C89.4197 8.00758 90.2053 7.87353 90.9945 7.8844C91.8341 7.87715 92.6702 8.04381 93.4413 8.37352C94.2233 8.72497 94.9224 9.23221 95.5026 9.86265L98.0972 7.45686C97.2467 6.46773 96.1729 5.69235 94.9693 5.1996C92.3927 4.1996 89.5494 4.16337 86.9476 5.08728C85.8161 5.50757 84.7818 6.15251 83.9026 6.9786C83.0449 7.79019 82.3602 8.77206 81.8954 9.86265C80.9476 12.196 80.9476 14.8083 81.8954 17.138C82.3602 18.225 83.0377 19.2069 83.8918 20.0221C84.7603 20.8518 85.7873 21.4931 86.9116 21.9134C88.126 22.3663 89.4161 22.5945 90.7134 22.5801C91.9855 22.5801 93.2503 22.3844 94.4684 22.0076C95.6575 21.6561 96.7782 21.0945 97.7764 20.3518V13.2213H94.0827V18.3627C93.8233 18.504 93.553 18.6235 93.2719 18.7213C92.5224 18.9786 91.7332 19.1054 90.9404 19.1018C90.162 19.1126 89.3873 18.975 88.6557 18.7032C87.9855 18.446 87.3729 18.0474 86.8612 17.5366C86.353 17.0257 85.953 16.4134 85.69 15.7431C85.4089 15.0293 85.272 14.2648 85.2792 13.4967C85.2684 12.7177 85.4089 11.9387 85.69 11.2141C85.9567 10.5438 86.3567 9.93873 86.8684 9.43511" fill="white"/>
<path d="M106.54 5.14844L99.1313 21.855H103.074L108.414 8.94191L113.73 21.855H117.766L110.339 5.14844H106.54Z" fill="white"/>
<path d="M128.984 9.05774C129.571 9.56498 129.863 10.2824 129.859 11.2063C129.859 12.1302 129.568 12.844 128.984 13.344C128.396 13.8621 127.513 14.1193 126.331 14.1193H123.189V8.29685H126.324C127.51 8.29685 128.396 8.55049 128.984 9.06136M130.382 16.4853C131.398 16.0577 132.263 15.3403 132.876 14.4201C133.474 13.4635 133.78 12.3476 133.748 11.2172C133.777 10.0759 133.47 8.94903 132.868 7.98164C132.263 7.0541 131.395 6.32585 130.378 5.88744C129.301 5.40194 128.022 5.15918 126.533 5.15918H119.337V21.8657H123.182V17.199H126.71L129.899 21.8585H134.054L130.342 16.4998L130.382 16.4816V16.4853Z" fill="white"/>
<path d="M140.832 5.14844H136.984V21.855H140.832V5.14844Z" fill="white"/>
<path d="M158.951 5.14844H144.472V8.29697H149.791V21.855H153.636V8.29697H158.951V5.14844Z" fill="white"/>
<path d="M173.885 5.14844V11.7354H166.339V5.14844H162.494V21.855H166.339V15.0035H173.885V21.855H177.73V5.14844H173.885Z" fill="white"/>
<path d="M200 21.855L199.953 5.14844H196.796L190.674 15.5216L184.454 5.14844H181.272V21.855H184.879V12.0397L189.744 20.0868H191.477L196.371 11.826L196.393 21.855H200Z" fill="white"/>
</svg>
