<svg width="148" height="20" viewBox="0 0 148 20" fill="none" xmlns="http://www.w3.org/2000/svg">
<path fill-rule="evenodd" clip-rule="evenodd" d="M24.7013 13.5506C25.9147 13.0412 26.9493 12.1832 27.68 11.0839C28.3973 9.93905 28.76 8.60653 28.7227 7.25522C28.7573 5.89051 28.392 4.54457 27.672 3.38631C26.944 2.27631 25.9093 1.40492 24.6933 0.88478C23.408 0.305649 21.8747 0.0160863 20.096 0.0160863H11.4987V3.76703H16.5173H19.848C21.2667 3.76703 22.3253 4.07001 23.024 4.67863C23.7253 5.28189 24.0747 6.13718 24.0747 7.24182C24.0747 8.34646 23.7227 9.19637 23.024 9.79427C22.3253 10.4136 21.2667 10.722 19.856 10.722H16.5147V10.7327H11.496V10.8185L16.0907 17.4329V14.4032H20.304L24.12 19.9693H29.0853L24.6507 13.5667L24.6987 13.5452M4.59466 0H0V19.9666H11.4987V19.98H12.8933L12.8853 19.9666L10.2693 16.2023H4.59466V0Z" fill="#284B8F"/>
<path d="M40.1838 3.80991H37.3385V16.1727H46.3492V13.8401H40.1838V3.80991Z" fill="#284B8F"/>
<path d="M48.9839 16.1727H58.5039V13.875H51.8132V11.0142H57.5199V8.78881H51.8132V6.10498H58.5039V3.80991H48.9839V16.1727Z" fill="#284B8F"/>
<path d="M64.2827 6.98441C64.664 6.60905 65.12 6.3168 65.6213 6.12912C66.1706 5.92535 66.752 5.82616 67.336 5.8342C67.9573 5.82884 68.576 5.95216 69.1467 6.19615C69.7253 6.45622 70.2427 6.83158 70.672 7.2981L72.592 5.51782C71.9626 4.78587 71.168 4.21209 70.2773 3.84745C68.3707 3.10745 66.2667 3.08064 64.3413 3.76433C63.504 4.07535 62.7386 4.5526 62.088 5.16391C61.4533 5.76449 60.9467 6.49107 60.6027 7.2981C59.9013 9.02477 59.9013 10.9579 60.6027 12.6819C60.9467 13.4862 61.448 14.2128 62.08 14.8161C62.7227 15.4301 63.4827 15.9046 64.3147 16.2156C65.2133 16.5508 66.168 16.7197 67.128 16.709C68.0693 16.709 69.0053 16.5642 69.9067 16.2854C70.7867 16.0253 71.616 15.6097 72.3546 15.0601V9.78354H69.6213V13.5881C69.4293 13.6927 69.2293 13.7812 69.0213 13.8535C68.4666 14.0439 67.8827 14.1377 67.296 14.1351C66.72 14.1431 66.1467 14.0412 65.6053 13.8401C65.1093 13.6498 64.656 13.3548 64.2773 12.9768C63.9013 12.5988 63.6053 12.1457 63.4107 11.6496C63.2027 11.1214 63.1013 10.5557 63.1067 9.98731C63.0987 9.41086 63.2027 8.83442 63.4107 8.29819C63.608 7.80217 63.904 7.35441 64.2827 6.98173" fill="#284B8F"/>
<path d="M78.84 3.80991L73.3573 16.1727H76.2746L80.2266 6.61707L84.16 16.1727H87.1466L81.6506 3.80991H78.84Z" fill="#284B8F"/>
<path d="M95.448 6.70292C95.8827 7.07829 96.0986 7.60916 96.096 8.29285C96.096 8.97655 95.88 9.50474 95.448 9.87474C95.0133 10.2581 94.36 10.4485 93.4853 10.4485H91.16V6.13987H93.48C94.3573 6.13987 95.0133 6.32756 95.448 6.70561M96.4827 12.1993C97.2347 11.8829 97.8746 11.3521 98.328 10.671C98.7706 9.96321 98.9973 9.13742 98.9733 8.3009C98.9947 7.45634 98.768 6.62248 98.3226 5.90661C97.8746 5.22023 97.232 4.68133 96.48 4.35691C95.6827 3.99763 94.736 3.81799 93.6346 3.81799H88.3093V16.1808H91.1546V12.7275H93.7653L96.1253 16.1755H99.2L96.4533 12.21L96.4827 12.1966V12.1993Z" fill="#284B8F"/>
<path d="M104.216 3.80991H101.368V16.1727H104.216V3.80991Z" fill="#284B8F"/>
<path d="M117.624 3.80991H106.909V6.13982H110.845V16.1727H113.691V6.13982H117.624V3.80991Z" fill="#284B8F"/>
<path d="M128.675 3.80991V8.68425H123.091V3.80991H120.245V16.1727H123.091V11.1027H128.675V16.1727H131.52V3.80991H128.675Z" fill="#284B8F"/>
<path d="M148 16.1727L147.965 3.80991H145.629L141.099 11.4861L136.496 3.80991H134.141V16.1727H136.811V8.90946L140.411 14.8643H141.693L145.315 8.75128L145.331 16.1727H148Z" fill="#284B8F"/>
</svg>
