<svg width="20" height="20" viewBox="0 0 20 20" fill="none" xmlns="http://www.w3.org/2000/svg">
<path d="M10.0017 0.629412C4.83233 0.629412 0.629412 4.83577 0.629412 10.0017C0.629412 15.1677 4.83577 19.374 10.0017 19.374C15.1677 19.374 19.374 15.1677 19.374 10.0017C19.374 4.83577 15.1711 0.629412 10.0017 0.629412ZM10.0017 20.0034C7.32932 20.0034 4.81858 18.9647 2.93036 17.0731C1.04214 15.1849 0 12.6741 0 10.0017C0 7.32932 1.0387 4.81858 2.93036 2.93036C4.81858 1.04214 7.32932 0 10.0017 0C12.6741 0 15.1849 1.0387 17.0731 2.93036C18.9613 4.81858 20 7.32932 20 10.0017C20 12.6741 18.9613 15.1849 17.0731 17.0731C15.1849 18.9613 12.6741 20.0034 10.0017 20.0034Z" fill="white"/>
<path d="M14.8462 14.9706C14.9132 14.9706 14.9801 14.9409 15.0248 14.8838C15.1017 14.7845 15.0844 14.6431 14.9851 14.5662L9.60311 10.3802V3.50193C9.60311 3.37786 9.50137 3.27612 9.3773 3.27612C9.25323 3.27612 9.15151 3.37786 9.15151 3.50193V10.4894C9.15151 10.5588 9.18376 10.6258 9.23835 10.668L14.7072 14.921C14.7494 14.9533 14.7965 14.9682 14.8462 14.9682" fill="white"/>
</svg>
