<svg width="42" height="45" viewBox="0 0 42 45" fill="none" xmlns="http://www.w3.org/2000/svg">
<path d="M1 44.4793H10.6972V37.485H1V44.4793Z" stroke="#1B325F" stroke-width="0.849704" stroke-miterlimit="10"/>
<path d="M5.85393 28.5981V32.0952H4.48378C2.56133 32.0952 1 30.3986 1 28.3095V24.8124H2.37015C4.29259 24.8124 5.85393 26.509 5.85393 28.5981Z" stroke="#1B325F" stroke-width="0.849704" stroke-miterlimit="10"/>
<path d="M5.85352 25.955V29.4522H7.22366C9.14611 29.4522 10.7074 27.7555 10.7074 25.6665V22.1693H9.33728C7.41483 22.1693 5.85352 23.8659 5.85352 25.955Z" stroke="#1B325F" stroke-width="0.849704" stroke-miterlimit="10"/>
<path d="M5.85352 26.4397V37.0466" stroke="#1B325F" stroke-width="0.849704" stroke-miterlimit="10"/>
<path d="M16.1465 44.4793H25.8437V27.0743H16.1465V44.4793Z" stroke="#1B325F" stroke-width="0.849704" stroke-miterlimit="10"/>
<path d="M21.0004 18.1872V21.6843H19.6303C17.7078 21.6843 16.1465 19.9877 16.1465 17.8986V14.4015H17.5166C19.4391 14.4015 21.0004 16.0981 21.0004 18.1872Z" stroke="#1B325F" stroke-width="0.849704" stroke-miterlimit="10"/>
<path d="M21 15.5557V19.0529H22.3701C24.2926 19.0529 25.8539 17.3562 25.8539 15.2672V11.77H24.4838C22.5613 11.77 21 13.4666 21 15.5557Z" stroke="#1B325F" stroke-width="0.849704" stroke-miterlimit="10"/>
<path d="M21 18.1874V26.6359" stroke="#1B325F" stroke-width="0.849704" stroke-miterlimit="10"/>
<path d="M31.291 44.4795H40.9882V16.3407H31.291V44.4795Z" stroke="#1B325F" stroke-width="0.849704" stroke-miterlimit="10"/>
<path d="M36.145 7.45343V10.9506H34.7748C32.8523 10.9506 31.291 9.25394 31.291 7.16488V3.66772H32.6612C34.5836 3.66772 36.145 5.36437 36.145 7.45343Z" stroke="#1B325F" stroke-width="0.849704" stroke-miterlimit="10"/>
<path d="M36.1465 4.82195V8.31911H37.5166C39.4391 8.31911 41.0004 6.62246 41.0004 4.53341V1.03625H39.6302C37.7078 1.03625 36.1465 2.73289 36.1465 4.82195Z" stroke="#1B325F" stroke-width="0.849704" stroke-miterlimit="10"/>
<path d="M36.1465 7.45337V15.9019" stroke="#1B325F" stroke-width="0.849704" stroke-miterlimit="10"/>
</svg>
