<svg width="42" height="45" viewBox="0 0 42 45" fill="none" xmlns="http://www.w3.org/2000/svg">
<path d="M23.2683 41.5033H1V1.03625H27.6454V21.6735" stroke="#1B325F" stroke-width="0.849934" stroke-linecap="round" stroke-linejoin="round"/>
<path d="M40.9998 32.8514C40.9998 39.2191 36.1552 44.4794 30.2907 44.4794C24.4261 44.4794 19.6665 39.2191 19.6665 32.8514C19.6665 26.4838 24.4261 21.3158 30.2907 21.3158C36.1552 21.3158 40.9998 26.4838 40.9998 32.8514Z" stroke="#1B325F" stroke-width="0.849934" stroke-linecap="round" stroke-linejoin="round"/>
<path d="M32.0972 28.6525C32.0972 28.6525 31.0985 27.6604 29.5686 28.1565C28.1556 28.6179 27.805 30.7058 28.7718 31.5249C29.3242 31.9978 30.1529 32.3785 31.2578 32.8053C33.7545 33.7628 32.8302 37.5811 30.291 37.6041C29.303 37.6041 28.8355 37.5465 27.9644 36.9235" stroke="#1B325F" stroke-width="0.849934" stroke-linecap="round" stroke-linejoin="round"/>
<path d="M30.291 38.9888V37.5927" stroke="#1B325F" stroke-width="0.849934" stroke-linecap="round" stroke-linejoin="round"/>
<path d="M30.291 28.0184V26.7261" stroke="#1B325F" stroke-width="0.849934" stroke-linecap="round" stroke-linejoin="round"/>
<path d="M22.3225 14.1061H6.38623V6.89636H22.3225V14.1061Z" stroke="#1B325F" stroke-width="0.849934" stroke-linecap="round" stroke-linejoin="round"/>
<path d="M7.05566 19.8739H8.38369" stroke="#1B325F" stroke-width="0.849934" stroke-linecap="round" stroke-linejoin="round"/>
<path d="M13.6851 19.8739H15.0131" stroke="#1B325F" stroke-width="0.849934" stroke-linecap="round" stroke-linejoin="round"/>
<path d="M20.3359 19.8739H21.664" stroke="#1B325F" stroke-width="0.849934" stroke-linecap="round" stroke-linejoin="round"/>
<path d="M7.05566 27.0837H8.38369" stroke="#1B325F" stroke-width="0.849934" stroke-linecap="round" stroke-linejoin="round"/>
<path d="M13.6851 27.0837H15.0131" stroke="#1B325F" stroke-width="0.849934" stroke-linecap="round" stroke-linejoin="round"/>
<path d="M7.05566 34.2935H8.38369" stroke="#1B325F" stroke-width="0.849934" stroke-linecap="round" stroke-linejoin="round"/>
<path d="M13.6851 34.2935H15.0131" stroke="#1B325F" stroke-width="0.849934" stroke-linecap="round" stroke-linejoin="round"/>
</svg>
