<svg width="42" height="42" viewBox="0 0 42 42" fill="none" xmlns="http://www.w3.org/2000/svg">
<path d="M30.3283 22.3277H10.3336V3.66596C10.3336 2.95433 10.6097 2.28517 11.1088 1.78597C11.6078 1.28677 12.2874 1.01062 12.9989 1.01062H19.6673C20.3681 1.01062 21.0477 1.28677 21.5574 1.78597C22.0565 2.28517 22.3326 2.96495 22.3326 3.66596C22.3326 4.36697 22.6086 5.04673 23.1183 5.54593C23.6174 6.04513 24.297 6.33191 25.0084 6.33191H40.9999V28.9979C40.9999 30.4742 39.8107 31.6638 38.3347 31.6638H30.3389V22.3277H30.3283Z" stroke="#1B325F" stroke-width="0.849708" stroke-linecap="round" stroke-linejoin="round"/>
<path d="M40.9894 3.66597C40.9894 2.95434 40.7133 2.28519 40.2143 1.78598C39.7152 1.28678 39.0356 1 38.3242 1H28.9905C30.4665 1 31.6557 2.1896 31.6557 3.66597C31.6557 5.14234 32.845 6.33192 34.321 6.33192H40.9894V3.66597Z" stroke="#1B325F" stroke-width="0.849708" stroke-linecap="round" stroke-linejoin="round"/>
<path d="M1 41.0001H30.3178V22.3384H1V41.0001Z" stroke="#1B325F" stroke-width="0.849708" stroke-linecap="round" stroke-linejoin="round"/>
<path d="M15.6642 11.6639H35.6589" stroke="#1B325F" stroke-width="0.849708" stroke-linecap="round" stroke-linejoin="round"/>
<path d="M15.6642 16.9958H30.3284" stroke="#1B325F" stroke-width="0.849708" stroke-linecap="round" stroke-linejoin="round"/>
<path d="M19.6672 27.6702H24.9977V33.0021" stroke="#1B325F" stroke-width="0.849708" stroke-linecap="round" stroke-linejoin="round"/>
<path d="M24.9979 27.6702L17.0021 35.668L9.00637 27.6702L1.01062 35.668" stroke="#1B325F" stroke-width="0.849708" stroke-linecap="round" stroke-linejoin="round"/>
<path d="M31.6558 3.66597C31.6558 2.95434 31.3797 2.28519 30.8807 1.78598C30.3816 1.28678 29.702 1 28.9906 1H19.6569C21.1328 1 22.3221 2.1896 22.3221 3.66597C22.3221 4.3776 22.5982 5.05736 23.0973 5.55656C23.5963 6.05576 24.2759 6.34254 24.9874 6.34254H34.321C32.8451 6.34254 31.6558 5.15295 31.6558 3.67659V3.66597Z" stroke="#1B325F" stroke-width="0.849708" stroke-linecap="round" stroke-linejoin="round"/>
</svg>
