<svg width="24" height="22" viewBox="0 0 24 22" fill="none" xmlns="http://www.w3.org/2000/svg">
<path d="M21.9539 0.194222C21.9539 0.194222 24.1741 -0.758063 23.989 1.55463C23.9274 2.50693 23.3724 5.83993 22.9406 9.44503L21.4605 20.1243C21.4605 20.1243 21.3372 21.6887 20.2271 21.9608C19.117 22.2329 17.4519 21.0085 17.1435 20.7364C16.8968 20.5324 12.5182 17.4714 10.9763 15.975C10.5446 15.5669 10.0513 14.7506 11.038 13.7983L17.5136 6.99631C18.2536 6.18005 18.9937 4.27548 15.9101 6.58818L7.27606 13.0501C7.27606 13.0501 6.28932 13.7303 4.4392 13.1182L0.430526 11.7577C0.430526 11.7577 -1.04959 10.7374 1.47894 9.71708C7.64612 6.5201 15.2317 3.25512 21.9539 0.194222Z" fill="white"/>
</svg>
